# xmcd
#
# Track frame offsets:
#	150
#	16755
#	35110
#	49587
#	60267
#	79955
#	99580
#	116670
#	140090
#	154840
#	172205
#	189407
#
# Disc length: 2818 seconds
# Revision: 6
# Processed by: cddbd v1.5.2PL0 Copyright (c) Steve Scherf et al.
# Submitted via: dBpowerAMP V12.0
#
DISCID=a00b000c
DTITLE=The Mavericks - Super Colossal Smash Hits of the 90's: The Best of the Mavericks
DYEAR=1999
DGENRE=Country
TTITLE0=Things I Cannot Change
TTITLE1=Pizziricco
TTITLE2=Here Comes My Baby
TTITLE3=Think of Me (When You're Lonely)
TTITLE4=Dance the Night Away
TTITLE5=All You Ever Do Is Bring Me Down
TTITLE6=Here Comes the Rain
TTITLE7=I Should Have Been True
TTITLE8=There Goes My Heart
TTITLE9=What a Crying Shame
TTITLE10=This Broken Heart
TTITLE11=From Hell to Paradise
EXTD=
EXTT0=
EXTT1=
EXTT2=
EXTT3=
EXTT4=
EXTT5=
EXTT6=
EXTT7=
EXTT8=
EXTT9=
EXTT10=
EXTT11=
PLAYORDER=
